<svg width="191" height="191" viewBox="0 0 191 191" fill="none" xmlns="http://www.w3.org/2000/svg">
<path d="M96.0547 0.00407113C107.992 0.187318 117.491 2.07267 127.438 5.5529C131.327 6.94288 135.269 8.62679 139.393 10.7775C145.918 14.129 154.818 20.0302 162.325 27.548C162.967 28.1839 163.601 28.8297 164.224 29.4826C164.227 29.4859 164.23 29.4891 164.233 29.4924C170.97 36.5017 176.282 44.5187 179.521 50.7043C184.598 60.5953 185.541 64.7514 186.629 68.05C187.003 69.3032 187.331 70.4783 187.687 71.8791C188.992 76.9234 190.361 84.7098 190.53 92.6886C190.531 92.719 190.531 92.7501 190.532 92.7804C190.565 94.1016 190.533 95.1755 190.499 95.172C190.464 95.1656 190.44 94.0819 190.407 92.7609C190.306 88.5545 189.912 84.4309 189.358 80.8C189.3 80.6151 189.129 79.633 188.922 78.464C188.333 75.5892 186.976 66.3791 180.729 53.5138C181.153 54.3953 181.494 55.1358 181.787 55.7902C182.131 56.5577 182.384 57.1511 182.6 57.6623C183.047 58.7291 183.335 59.4363 183.828 60.7082C184.979 63.6503 186.593 68.3529 187.771 73.4435C188.072 74.727 188.258 75.7805 188.224 75.7814C188.188 75.7806 187.945 74.7299 187.645 73.4494C187.639 73.4245 187.633 73.3991 187.627 73.3742C186.458 68.339 184.799 63.4934 183.584 60.4279C183.278 59.6476 183.004 58.98 182.796 58.4806C182.63 58.0816 182.417 57.582 182.299 57.3058C182.283 57.2691 182.253 57.199 182.217 57.1154C182.216 57.1141 182.215 57.1128 182.215 57.1115C182.195 57.0646 182.093 56.826 181.985 56.5715C181.964 56.5201 181.916 56.4084 181.861 56.2785C181.847 56.2452 181.832 56.2112 181.817 56.1779C181.612 55.7142 181.399 55.243 181.164 54.7355C180.216 52.7694 178.828 49.5684 174.946 43.4806C171.36 37.9382 164.585 28.7354 153.485 20.1252C154.231 20.7073 154.97 21.302 155.699 21.9064C157.536 23.4289 159.322 25.0255 161.048 26.6886C161.709 27.3256 162.351 27.9633 162.997 28.6222C164.036 29.6829 165.054 30.7714 166.045 31.882C166.714 32.6324 167.373 33.3951 168.02 34.1672C168.021 34.1689 168.023 34.1703 168.024 34.172C168.922 35.2442 169.796 36.338 170.653 37.4601C170.953 37.8526 171.247 38.2429 171.535 38.632C172.681 40.1818 173.769 41.7398 174.95 43.5705C175.094 43.7935 175.249 44.0369 175.363 44.2189C175.486 44.4145 175.604 44.6036 175.715 44.7824C175.812 44.9401 175.905 45.0908 175.993 45.2355C176.005 45.2549 176.016 45.2747 176.028 45.2941C176.127 45.4563 176.222 45.6114 176.312 45.7609C176.401 45.9102 176.488 46.0548 176.572 46.1965C176.573 46.1976 176.574 46.1992 176.574 46.2004C176.662 46.3483 176.729 46.4611 176.822 46.6183C176.939 46.8157 177.039 46.9854 177.159 47.1916C177.276 47.3913 177.396 47.6005 177.518 47.8117C177.639 48.0228 177.762 48.238 177.886 48.4572C178.01 48.6765 178.135 48.9004 178.26 49.1261C178.385 49.3518 178.511 49.5816 178.637 49.8127C178.763 50.0441 178.888 50.2774 179.014 50.5129C179.302 51.0543 179.568 51.5798 179.755 51.9699C179.941 52.3582 180.035 52.5814 180.021 52.5881C180.005 52.5927 179.88 52.3781 179.671 51.9953C179.462 51.6124 179.183 51.0922 178.893 50.5519C178.814 50.4047 178.734 50.2566 178.653 50.1086C178.606 50.021 178.557 49.9321 178.509 49.8439C178.379 49.6063 178.246 49.3664 178.112 49.1261C177.978 48.8859 177.841 48.6435 177.702 48.3996C177.563 48.1551 177.421 47.9073 177.275 47.6574C177.131 47.4081 176.981 47.154 176.829 46.8966C176.68 46.6454 176.509 46.3596 176.355 46.1047C176.243 45.918 176.103 45.6874 175.986 45.4963C175.864 45.2968 175.743 45.1007 175.626 44.9123C175.509 44.7235 175.394 44.5409 175.285 44.3674C175.274 44.349 175.262 44.3301 175.25 44.3117C175.153 44.1584 175.06 44.0106 174.971 43.8713C174.871 43.7155 174.776 43.5684 174.686 43.4289C174.586 43.2752 174.525 43.1816 174.45 43.0675C173.459 41.5588 172.176 39.7274 170.889 38.0324C170.727 37.8192 170.565 37.608 170.404 37.3996C169.55 36.2916 168.674 35.2064 167.773 34.1398C167.12 33.3651 166.453 32.5999 165.773 31.8449C164.773 30.7337 163.743 29.6423 162.689 28.5773C162.035 27.9159 161.383 27.2757 160.712 26.6349C158.958 24.9617 157.135 23.3507 155.25 21.8088C153.369 20.2697 151.416 18.7917 149.408 17.3908C147.408 15.9942 145.273 14.6237 143.165 13.384C141.616 12.4709 139.998 11.579 138.483 10.7961C137.669 10.3749 136.863 9.9727 136.066 9.58903C136.064 9.58776 136.061 9.5864 136.059 9.58513C135.36 9.24849 134.665 8.92418 133.971 8.61052C132.48 7.93719 131.004 7.31713 129.509 6.73356C128.013 6.15001 126.518 5.61148 124.99 5.10563C123.471 4.60256 121.927 4.13517 120.375 3.71013C118.811 3.28224 117.284 2.90545 115.653 2.54899C113.51 2.08165 111.377 1.69342 109.165 1.37126C106.981 1.05333 104.747 0.808388 102.521 0.64372C101.741 0.585907 100.956 0.537044 100.169 0.498212C100.166 0.498061 100.162 0.498362 100.159 0.498212C98.7165 0.427156 97.2616 0.387773 95.7979 0.382001C95.6466 0.381404 95.4952 0.381889 95.3438 0.382001C93.2271 0.383898 91.1481 0.452455 89.0264 0.592938C86.7669 0.742901 84.4999 0.974264 82.2334 1.28825C79.9724 1.60109 77.6476 2.00709 75.3398 2.50114C73.275 2.94275 71.2206 3.45538 69.2197 4.02556C68.6925 4.17574 68.167 4.33038 67.6436 4.48942C65.1502 5.24751 62.7775 6.08019 60.457 6.99821C58.1469 7.91252 55.8651 8.9236 53.6152 10.0314C51.3684 11.1377 49.1404 12.3473 46.9482 13.6574C44.7458 14.9741 42.6257 16.3606 40.5215 17.8625C38.4363 19.3514 36.3993 20.9333 34.4092 22.6154C33.3019 23.5507 32.1476 24.5728 31.0801 25.5636C30.002 26.5636 28.9538 27.5818 27.9424 28.6095C27.5319 29.0266 27.1276 29.4459 26.7295 29.8654C26.1491 30.4771 25.5815 31.0909 25.0312 31.7023C24.1025 32.7343 23.2185 33.7627 22.3809 34.7785C21.5442 35.793 20.7535 36.7951 20.0088 37.7785C19.2382 38.7977 18.621 39.6478 17.9004 40.6799C16.1512 43.1972 15.1488 44.8084 14.0635 46.6174C13.8511 46.9738 13.6361 47.34 13.415 47.7228C12.1487 49.9144 10.9743 52.1491 9.90039 54.4025C8.81907 56.6719 7.83986 58.9542 6.94238 61.297C6.05276 63.6198 5.24972 65.9938 4.5459 68.382C3.84178 70.7711 3.23413 73.1765 2.71875 75.6203C2.20561 78.0493 1.77909 80.5705 1.4668 82.9806C1.28445 84.3789 1.12417 85.8753 1.00781 87.256C0.923212 88.2548 0.85586 89.2444 0.803712 90.2179C0.782547 90.613 0.764089 91.0032 0.748048 91.3918C0.694765 92.6824 0.66885 93.9453 0.666993 95.172C0.666922 95.2186 0.666996 95.2653 0.666993 95.3117C0.666964 96.5816 0.691487 97.8049 0.738282 98.9963C0.784906 100.183 0.855298 101.368 0.94629 102.534C1.04208 103.747 1.13683 104.741 1.28613 106.031C1.38384 106.868 1.49012 107.685 1.60645 108.495C1.77989 109.704 1.9785 110.919 2.2002 112.126C2.42191 113.333 2.66318 114.515 2.93067 115.708C3.01647 116.091 3.11029 116.494 3.20117 116.876C3.48176 118.055 3.78143 119.215 4.10449 120.372C4.42671 121.526 4.7659 122.655 5.12695 123.78C5.48999 124.911 5.86732 126.014 6.27246 127.128C6.96221 129.026 7.6832 130.821 8.35156 132.374C9.02968 133.95 9.70074 135.398 10.3887 136.797C10.5176 137.059 10.6471 137.321 10.7783 137.581C11.344 138.704 11.921 139.793 12.5117 140.86C13.2397 142.173 13.9829 143.442 14.7598 144.699C15.5304 145.947 16.337 147.185 17.1602 148.387C17.992 149.6 18.8127 150.741 19.7256 151.949C20.63 153.145 21.575 154.337 22.6455 155.615C23.7071 156.882 24.8542 158.183 26.0527 159.466C27.2497 160.748 28.5012 162.017 29.7773 163.241C31.0559 164.469 32.3726 165.664 33.7021 166.807C35.0394 167.956 36.3989 169.062 37.7812 170.124C39.161 171.186 40.6136 172.238 42.002 173.19C44.2464 174.728 46.549 176.165 48.9111 177.502C51.2617 178.833 53.6793 180.067 56.1338 181.19C58.5903 182.313 61.0922 183.329 63.6338 184.236C66.1741 185.143 68.7512 185.939 71.3623 186.624C71.9413 186.776 72.5146 186.921 73.0938 187.061C75.132 187.554 77.1883 187.98 79.2461 188.334C79.2603 188.337 79.2749 188.339 79.2891 188.341C81.9448 188.797 84.5664 189.133 87.2178 189.361C88.1914 189.444 89.1313 189.51 90.0898 189.563C91.0478 189.616 91.9771 189.653 92.9258 189.677C93.735 189.697 94.5433 189.708 95.3438 189.708C95.4818 189.708 95.6196 189.708 95.7568 189.707C96.7005 189.703 97.6174 189.685 98.5391 189.654C99.3846 189.626 100.216 189.587 101.14 189.53C101.224 189.525 101.308 189.52 101.392 189.515C102.397 189.451 103.537 189.36 104.59 189.258C107.399 188.986 110.109 188.601 112.857 188.087C115.601 187.573 118.314 186.939 121.026 186.174C122.085 185.876 123.133 185.56 124.188 185.222C125.828 184.697 127.443 184.13 129.062 183.511C131.717 182.496 134.334 181.359 136.906 180.098C139.472 178.84 141.997 177.458 144.44 175.972C146.886 174.485 149.282 172.876 151.57 171.184C154.122 169.298 156.564 167.297 158.911 165.17C161.256 163.046 163.495 160.804 165.608 158.466C167.729 156.12 169.729 153.674 171.603 151.134C173.477 148.593 175.224 145.959 176.836 143.242C177.8 141.618 178.717 139.961 179.582 138.281C180.036 137.39 180.458 136.525 180.851 135.693C183.717 129.51 185.358 124.829 186.989 118.54C187.14 117.938 187.258 117.447 187.396 116.847C187.423 116.732 187.45 116.61 187.479 116.486C187.655 115.703 187.854 114.791 188.1 113.533C188.587 111.022 189.264 107.129 189.66 102.066C189.759 100.784 189.828 99.9633 189.849 100.243C189.862 100.44 189.843 101.126 189.79 101.958C189.903 100.416 189.978 98.8895 190.017 97.3576C190.032 96.7459 190.047 96.1697 190.062 95.7599C190.076 95.3506 190.091 95.1406 190.107 95.1759C190.123 95.2114 190.139 95.4909 190.146 95.9523C190.154 96.4136 190.151 97.0181 190.135 97.633C190.093 99.2611 190.01 100.886 189.885 102.51C189.76 104.13 189.595 105.743 189.388 107.357C189.181 108.965 188.933 110.572 188.643 112.176C188.354 113.769 188.024 115.366 187.651 116.951C187.278 118.543 186.868 120.104 186.413 121.673C186.14 122.613 185.85 123.557 185.549 124.486C185.437 124.831 185.326 125.167 185.213 125.502C185.12 125.776 185.026 126.052 184.928 126.334C183.895 129.308 182.7 132.26 181.372 135.118C180.038 137.989 178.561 140.791 176.948 143.512C175.658 145.689 174.278 147.811 172.818 149.876C180.224 139.522 182.961 131.669 184.854 126.684C187.01 120.438 187.559 117.643 188.168 115.064C189.047 111.426 190.017 104.245 190.156 100.61C190.231 99.2887 190.289 98.2333 190.324 98.2384C190.358 98.2513 190.356 99.3186 190.28 100.64C190.136 104.482 189.07 112.262 187.952 116.586C187.456 118.505 187.036 120.767 184.901 126.922C182.6 132.927 179.069 143.244 167.188 157.294C163.11 161.969 159.742 165.136 155.993 168.288C155.624 168.596 155.25 168.903 154.87 169.21C154.868 169.212 154.866 169.214 154.863 169.216C151.355 172.033 147.382 174.94 141.619 178.186C141.22 178.429 140.814 178.666 140.402 178.902C142.305 177.881 144.269 176.75 146.375 175.418C147.25 174.864 148.147 174.276 149.075 173.643C153.064 170.904 157.789 167.331 163.299 161.746C167.84 157.142 172.856 150.986 177.054 143.946C179.127 140.486 181.013 136.825 182.63 133.114C187.502 121.891 189.89 110.745 190.425 99.5685C190.425 99.5664 190.425 99.5638 190.425 99.5617C190.486 98.2472 190.533 97.2107 190.567 97.258C190.6 97.3089 190.606 98.4204 190.542 99.7336C189.987 110.931 187.581 122.052 182.708 133.248C181.111 136.906 179.238 140.543 177.171 143.994C172.951 151.079 167.854 157.328 163.254 161.971C157.631 167.647 152.796 171.268 148.732 174.028C147.751 174.689 146.816 175.294 145.919 175.854C143.062 177.633 140.604 178.977 138.176 180.201C126.854 185.906 116.666 188.176 110.651 189.162C109.573 189.339 108.64 189.475 107.834 189.582C103.729 190.13 99.5482 190.417 95.3438 190.431C92.3785 190.441 89.4467 190.316 86.5605 190.064C85.4366 189.965 84.298 189.845 83.1855 189.707C83.1833 189.707 83.181 189.707 83.1787 189.707C77.4502 189.003 72.0209 187.784 67.2734 186.335C62.4493 184.862 58.3594 183.231 54.6289 181.497C52.6278 180.565 50.734 179.599 48.8945 178.583C42.7132 174.926 36.8038 171.946 25.5312 160.337C23.0609 157.68 20.8619 155.076 18.3213 151.611C18.3199 151.61 18.3187 151.607 18.3174 151.606C17.9557 151.11 17.5877 150.596 17.2129 150.061C14.2369 145.739 10.4562 139.951 6.60938 130.382C2.40838 119.771 1.05565 110.719 0.50879 105.25C0.41311 104.224 0.293803 103.178 0.140626 100.486C0.0696705 99.1415 -0.000291588 97.4483 9.1399e-07 95.172C0.000572346 94.4683 0.00872255 93.7124 0.0283212 92.9006C0.0728378 91.0785 0.172981 88.9457 0.398438 86.4709C1.0385 78.2638 3.80973 65.4724 8.99317 54.7179C12.0495 48.1686 15.7685 42.3703 18.8896 38.2101C23.4527 32.1193 28.5267 26.735 34.6777 21.6457C40.3199 17.0081 46.8919 12.5937 55.1191 8.74724C61.4347 5.80983 67.8933 3.65385 74.6084 2.18864C75.4641 2.00233 76.3286 1.82645 77.1885 1.66423C82.9384 0.582668 88.9127 -0.0113697 95.3438 0.00016488C95.5802 0.00071508 95.8175 0.00181343 96.0547 0.00407113ZM29.4316 164.047C38.1859 172.467 43.1487 174.988 48.2314 178.069C49.7948 178.95 51.5385 179.872 53.458 180.8C57.285 182.652 61.8011 184.507 66.7939 186.056C71.4373 187.501 76.7565 188.741 82.4736 189.489C82.4758 189.49 82.4783 189.49 82.4805 189.49C83.5947 189.637 84.7325 189.766 85.877 189.874C88.9608 190.167 92.1325 190.316 95.3438 190.305C98.1709 190.295 100.996 190.159 103.8 189.904C103.527 189.92 103.284 189.93 103.07 189.931C102.119 190.01 101.195 190.074 100.218 190.126C98.8042 190.201 97.2717 190.256 95.3438 190.262C92.2091 190.253 88.0822 190.192 81.8271 189.328C79.6227 189.017 77.0588 188.573 74.2754 187.944C70.1133 187.023 66.1231 185.821 62.7402 184.594C59.8093 183.532 57.1609 182.424 54.6406 181.249C53.9171 180.912 53.1871 180.56 52.4668 180.201C50.7291 179.337 49.0171 178.417 47.3779 177.47C46.0728 176.716 44.7186 175.894 43.3154 174.988C39.1899 172.306 34.5254 168.918 29.4316 164.047ZM132.158 182.837C123.117 186.481 113.259 188.663 107.364 189.516C107.37 189.515 107.376 189.515 107.382 189.514C108.143 189.416 109.049 189.29 110.09 189.125C114.999 188.352 123.006 186.677 132.158 182.837ZM66.1836 185.6C68.8436 186.458 71.4692 187.17 73.9229 187.735C74.4247 187.848 74.9321 187.959 75.4424 188.066C74.034 187.766 72.6406 187.437 71.2539 187.075C69.5442 186.629 67.8626 186.14 66.1836 185.6ZM2.8125 117.588C3.40741 120.054 4.12503 122.593 4.98438 125.185C6.2227 128.915 7.77369 132.845 9.80762 137.009C13.2938 144.098 18.1566 152.013 25.8516 160.26C32.0039 166.78 37.3737 170.871 42.3789 174.222C43.8247 175.181 45.2567 176.075 46.6904 176.921C47.2848 177.272 47.8831 177.615 48.4902 177.955C44.9673 175.957 41.8619 173.884 39.4004 172.086C32.0831 166.67 28.4921 162.873 25.3887 159.56C24.4992 158.59 23.6638 157.64 22.8301 156.654C22.1355 155.843 21.4286 154.988 20.7305 154.111C19.7523 152.884 18.7292 151.53 17.791 150.217C16.8479 148.898 15.9249 147.534 15.0537 146.171C14.1745 144.796 13.3407 143.413 12.5449 142.014C11.7953 140.696 11.0829 139.369 10.4219 138.067C10.3841 137.992 10.3462 137.918 10.3086 137.843C9.61227 136.463 8.97311 135.109 8.40918 133.849C7.83492 132.565 7.38463 131.489 6.99512 130.53C6.50921 129.333 6.03273 128.086 5.59277 126.855C5.15121 125.619 4.73567 124.373 4.34863 123.127C3.96175 121.881 3.60355 120.637 3.26953 119.379C3.16119 118.971 3.05234 118.548 2.95117 118.145C2.90459 117.959 2.85784 117.774 2.8125 117.588ZM167.669 156.523C167.027 157.28 166.374 158.029 165.708 158.767C163.593 161.108 161.353 163.353 159.013 165.477C157.203 167.119 155.344 168.68 153.427 170.169C152.674 170.757 151.919 171.328 151.167 171.88C149.298 173.252 147.377 174.556 145.432 175.778C149.022 173.535 151.846 171.466 154.459 169.38C154.841 169.074 155.218 168.767 155.591 168.458C159.389 165.293 162.901 162.024 167.123 157.178C167.308 156.959 167.488 156.739 167.669 156.523ZM28.3818 163.026C28.6089 163.248 28.8335 163.467 29.0557 163.683C28.832 163.467 28.6072 163.248 28.3818 163.026ZM11.4199 140.417C13.6679 144.593 15.736 147.746 17.5693 150.35C17.9522 150.891 18.3246 151.406 18.6875 151.899C21.2623 155.371 23.312 157.762 25.6025 160.231C26.4601 161.114 27.2863 161.944 28.0811 162.729C27.3218 161.974 26.5523 161.187 25.7754 160.362C19.3436 153.49 14.7859 146.657 11.4199 140.417ZM10.71 139.078C10.9077 139.459 11.1047 139.831 11.2998 140.195C11.099 139.821 10.9023 139.448 10.71 139.078ZM189.586 104.327C189.266 107.484 188.865 110.021 188.528 111.918C188.819 110.311 189.067 108.704 189.273 107.09C189.391 106.172 189.496 105.243 189.586 104.327ZM10.1914 52.6476C9.43355 54.1557 8.69127 55.7309 7.9541 57.4279C7.36582 58.7829 6.78649 60.2021 6.21387 61.7189C5.99454 62.3002 5.73563 63.0013 5.44629 63.8254C4.3053 67.0979 2.64074 72.294 1.45508 79.3537C1.27269 80.4503 1.02483 82.0366 0.785157 84.1134C0.765589 84.2835 0.748885 84.4578 0.729493 84.6349C0.839485 83.655 0.960829 82.7069 1.10352 81.7101C1.44473 79.3358 1.86331 77.0425 2.37012 74.7394C2.87884 72.4299 3.4713 70.1459 4.14844 67.8869C4.82665 65.624 5.59147 63.3809 6.43262 61.1847C7.28122 58.9694 8.19972 56.8154 9.2041 54.6808C9.52346 54.0023 9.85412 53.3224 10.1914 52.6476ZM28.5127 27.3693C25.0609 30.7707 21.9322 34.3467 18.9766 38.3029C18.9377 38.355 18.8985 38.4075 18.8594 38.4601C19.3091 37.8638 19.7558 37.2852 20.1982 36.7257C20.5343 36.2929 20.8725 35.8658 21.21 35.4465C22.1706 34.2528 23.1379 33.1109 24.1094 32.0148C24.7917 31.2449 25.4794 30.4944 26.168 29.7658C26.4585 29.4584 26.7506 29.153 27.042 28.8527C27.5303 28.3495 28.0209 27.8546 28.5127 27.3693Z" fill="black"/>
</svg>
